<?xml version="1.0" encoding="UTF-8" standalone="no"?>
<!DOCTYPE svg PUBLIC "-//W3C//DTD SVG 1.1//EN" "http://www.w3.org/Graphics/SVG/1.1/DTD/svg11.dtd">
<svg width="100%" height="100%" viewBox="0 0 2903 363" version="1.1" xmlns="http://www.w3.org/2000/svg" xmlns:xlink="http://www.w3.org/1999/xlink" xml:space="preserve" xmlns:serif="http://www.serif.com/" style="fill-rule:evenodd;clip-rule:evenodd;stroke-linejoin:round;stroke-miterlimit:2;">
    <g transform="matrix(1,0,0,1,-302.667,-1029.3)">
        <g transform="matrix(1,0,0,1,-195.801,32.9873)">
            <g transform="matrix(1,0,0,1,-449.44,143.262)">
                <path d="M947.908,1210.63C950.382,1187.71 952.335,1167.08 953.768,1148.72C955.2,1130.36 956.437,1109.07 957.479,1084.85C958.52,1060.63 959.301,1035.08 959.822,1008.19C960.343,981.3 960.604,959.914 960.604,944.028C976.88,944.419 990.031,944.614 1000.06,944.614C1010.47,944.614 1023.17,944.321 1038.14,943.735C1053.12,943.149 1067.7,942.856 1081.89,942.856C1098.56,942.856 1113.4,943.508 1126.42,944.81C1136.19,945.721 1145.08,947.609 1153.08,950.474C1161.09,953.338 1167.83,956.821 1173.3,960.923C1178.77,965.024 1183.33,969.614 1186.97,974.692C1190.62,979.771 1193.45,985.728 1195.47,992.564C1197.49,999.399 1198.49,1006.72 1198.49,1014.54C1198.49,1023.26 1197.39,1031.43 1195.17,1039.05C1192.96,1046.66 1189.48,1053.83 1184.73,1060.53C1179.97,1067.24 1173.98,1073.03 1166.76,1077.91C1159.53,1082.8 1149.41,1087.78 1136.38,1092.86L1146.54,1117.66C1149.41,1124.56 1152.47,1131.59 1155.72,1138.76L1181.89,1195.98C1183.06,1198.45 1185.15,1203.34 1188.14,1210.63C1166.66,1210.37 1152.2,1210.24 1144.78,1210.24C1135.41,1210.24 1120.04,1210.37 1098.69,1210.63C1096.61,1203.86 1092.83,1191.29 1087.36,1172.93C1085.15,1165.25 1083.26,1159.33 1081.7,1155.16C1078.57,1145.92 1073.95,1132.96 1067.83,1116.29L1047.71,1061.02C1054.74,1062.32 1061.64,1062.97 1068.42,1062.97C1077.92,1062.97 1086.55,1061.54 1094.3,1058.68C1102.04,1055.81 1107.9,1051.38 1111.87,1045.4C1115.84,1039.41 1117.83,1033.09 1117.83,1026.45C1117.83,1020.85 1116.33,1015.94 1113.34,1011.7C1110.34,1007.47 1105.62,1004.32 1099.18,1002.23C1092.73,1000.15 1082.8,999.106 1069.39,999.106C1064.84,999.106 1060.12,999.204 1055.23,999.399C1050.35,999.595 1044.65,999.758 1038.14,999.888C1036.45,1026.58 1034.95,1059.13 1033.65,1097.54C1032.35,1135.95 1031.5,1173.65 1031.11,1210.63C1009.37,1210.37 995.239,1210.24 988.729,1210.24C981.176,1210.24 967.57,1210.37 947.908,1210.63Z" style="fill:rgb(248,221,0);fill-rule:nonzero;"/>
                <path d="M1419.59,1151.65C1417.89,1159.46 1414.64,1178.34 1409.82,1208.29C1394.72,1211.28 1382.02,1213.27 1371.74,1214.24C1361.45,1215.22 1351.03,1215.71 1340.49,1215.71C1324.99,1215.71 1310.73,1214.63 1297.71,1212.49C1284.69,1210.34 1273.46,1206.54 1264.02,1201.08C1254.58,1195.61 1246.67,1188.81 1240.29,1180.68C1233.91,1172.55 1229.06,1162.89 1225.74,1151.71C1222.42,1140.52 1220.76,1129.01 1220.76,1117.17C1220.76,1100.52 1224.08,1084.22 1230.72,1068.29C1237.36,1052.35 1245.92,1039.89 1256.4,1030.92C1266.89,1021.95 1278.96,1015.57 1292.63,1011.8C1306.31,1008.02 1320.3,1006.14 1334.63,1006.14C1349.47,1006.14 1363.63,1007.86 1377.11,1011.31C1390.58,1014.76 1402.01,1020.79 1411.38,1029.38C1420.76,1037.97 1427.43,1047.67 1431.4,1058.48C1435.38,1069.29 1437.36,1080.94 1437.36,1093.44C1437.36,1100.86 1436.52,1109.13 1434.82,1118.25L1297.91,1118.44C1297.78,1120.52 1297.71,1122.39 1297.71,1124.08C1297.71,1138.09 1302.73,1148.39 1312.75,1155.01C1322.78,1161.62 1335.02,1164.93 1349.47,1164.93C1358.06,1164.93 1367.86,1163.92 1378.87,1161.9C1389.87,1159.88 1403.44,1156.46 1419.59,1151.65ZM1299.47,1088.56L1363.92,1088.56C1364.05,1086.35 1364.12,1084.46 1364.12,1082.9C1364.12,1076.12 1362.91,1070.33 1360.51,1065.51C1358.1,1060.69 1354.65,1057.18 1350.15,1054.97C1345.66,1052.75 1340.62,1051.65 1335.02,1051.65C1331.11,1051.65 1327.34,1052.26 1323.69,1053.5C1320.04,1054.74 1316.76,1056.56 1313.83,1058.97C1310.9,1061.38 1308.45,1064.15 1306.5,1067.27C1304.55,1070.4 1303.12,1073.42 1302.2,1076.35C1301.29,1079.28 1300.38,1083.35 1299.47,1088.56Z" style="fill:rgb(248,221,0);fill-rule:nonzero;"/>
                <path d="M1461.38,1206.92C1460.86,1201.19 1460.34,1195.17 1459.82,1188.85C1459.3,1182.54 1458.45,1173.85 1457.28,1162.78L1455.72,1148.72C1468.35,1153.66 1479.22,1157.34 1488.34,1159.75C1497.45,1162.16 1505.85,1163.36 1513.53,1163.36C1519.91,1163.36 1525.09,1162.78 1529.06,1161.61C1533.03,1160.43 1535.93,1158.74 1537.75,1156.53C1539.58,1154.32 1540.49,1152.04 1540.49,1149.69C1540.49,1147.61 1539.8,1145.56 1538.44,1143.54C1537.07,1141.52 1533.98,1138.76 1529.16,1135.24C1518.48,1127.43 1509.07,1120.33 1500.94,1113.95C1492.8,1107.57 1486.68,1101.91 1482.58,1096.96C1478.48,1092.01 1475.35,1086.67 1473.2,1080.94C1471.05,1075.21 1469.98,1069.29 1469.98,1063.17C1469.98,1052.36 1473.07,1042.27 1479.26,1032.9C1485.44,1023.52 1494.56,1016.72 1506.6,1012.49C1518.64,1008.25 1533.33,1006.14 1550.64,1006.14C1568.74,1006.14 1591.85,1008.48 1619.98,1013.17L1623.1,1067.86C1607.35,1061.61 1592.18,1058.48 1577.6,1058.48C1567.31,1058.48 1559.86,1059.54 1555.23,1061.65C1550.61,1063.77 1548.3,1067.01 1548.3,1071.37C1548.3,1072.8 1548.56,1074.17 1549.08,1075.47C1549.6,1076.78 1550.55,1078.14 1551.91,1079.58C1553.28,1081.01 1554.97,1082.47 1556.99,1083.97C1559.01,1085.47 1563.92,1088.95 1571.74,1094.42C1579.55,1099.89 1585.67,1104.38 1590.1,1107.9C1597.39,1113.62 1602.95,1118.93 1606.8,1123.81C1610.64,1128.7 1613.57,1133.9 1615.58,1139.44C1617.6,1144.97 1618.61,1150.8 1618.61,1156.92C1618.61,1166.16 1616.37,1174.66 1611.87,1182.41C1607.38,1190.15 1600.61,1196.63 1591.56,1201.84C1582.51,1207.05 1572.71,1210.66 1562.17,1212.68C1551.62,1214.7 1540.75,1215.71 1529.55,1215.71C1522,1215.71 1512.52,1215.06 1501.13,1213.76C1489.74,1212.45 1476.49,1210.17 1461.38,1206.92Z" style="fill:rgb(248,221,0);fill-rule:nonzero;"/>
                <path d="M1849.47,1151.65C1847.78,1159.46 1844.52,1178.34 1839.7,1208.29C1824.6,1211.28 1811.91,1213.27 1801.62,1214.24C1791.33,1215.22 1780.92,1215.71 1770.37,1215.71C1754.87,1215.71 1740.62,1214.63 1727.6,1212.49C1714.58,1210.34 1703.34,1206.54 1693.9,1201.08C1684.46,1195.61 1676.55,1188.81 1670.17,1180.68C1663.79,1172.55 1658.94,1162.89 1655.62,1151.71C1652.3,1140.52 1650.64,1129.01 1650.64,1117.17C1650.64,1100.52 1653.96,1084.22 1660.6,1068.29C1667.24,1052.35 1675.81,1039.89 1686.29,1030.92C1696.77,1021.95 1708.85,1015.57 1722.52,1011.8C1736.19,1008.02 1750.19,1006.14 1764.51,1006.14C1779.35,1006.14 1793.51,1007.86 1806.99,1011.31C1820.47,1014.76 1831.89,1020.79 1841.27,1029.38C1850.64,1037.97 1857.32,1047.67 1861.29,1058.48C1865.26,1069.29 1867.24,1080.94 1867.24,1093.44C1867.24,1100.86 1866.4,1109.13 1864.7,1118.25L1727.79,1118.44C1727.66,1120.52 1727.6,1122.39 1727.6,1124.08C1727.6,1138.09 1732.61,1148.39 1742.63,1155.01C1752.66,1161.62 1764.9,1164.93 1779.35,1164.93C1787.95,1164.93 1797.75,1163.92 1808.75,1161.9C1819.75,1159.88 1833.33,1156.46 1849.47,1151.65ZM1729.35,1088.56L1793.81,1088.56C1793.94,1086.35 1794,1084.46 1794,1082.9C1794,1076.12 1792.8,1070.33 1790.39,1065.51C1787.98,1060.69 1784.53,1057.18 1780.04,1054.97C1775.55,1052.75 1770.5,1051.65 1764.9,1051.65C1760.99,1051.65 1757.22,1052.26 1753.57,1053.5C1749.93,1054.74 1746.64,1056.56 1743.71,1058.97C1740.78,1061.38 1738.34,1064.15 1736.38,1067.27C1734.43,1070.4 1733,1073.42 1732.09,1076.35C1731.18,1079.28 1730.27,1083.35 1729.35,1088.56Z" style="fill:rgb(248,221,0);fill-rule:nonzero;"/>
                <path d="M1892.63,1210.63L1898.69,1123.91L1900.64,1074.11C1900.77,1065.12 1900.84,1055.94 1900.84,1046.57C1900.84,1037.06 1900.71,1025.28 1900.45,1011.22C1916.2,1011.48 1928.7,1011.61 1937.95,1011.61C1948.76,1011.61 1961.19,1011.48 1975.25,1011.22L1974.47,1033.29C1979.55,1027.56 1983.72,1023.29 1986.97,1020.49C1990.23,1017.69 1993.94,1015.15 1998.1,1012.88C2002.27,1010.6 2006.63,1008.9 2011.19,1007.8C2015.75,1006.69 2020.5,1006.14 2025.45,1006.14C2030.13,1006.14 2035.34,1006.79 2041.07,1008.09C2041.2,1022.28 2041.53,1034 2042.05,1043.25L2043.42,1073.33C2036.26,1071.24 2029.55,1070.2 2023.3,1070.2C2015.49,1070.2 2008.75,1071.34 2003.08,1073.62C1997.42,1075.9 1992.41,1079.35 1988.05,1083.97C1983.68,1088.59 1980.2,1094.35 1977.6,1101.26C1974.99,1108.16 1973.17,1119.09 1972.13,1134.07C1971.09,1149.04 1970.56,1166.16 1970.56,1185.43C1970.56,1192.2 1970.83,1200.6 1971.35,1210.63C1958.72,1210.37 1946.02,1210.24 1933.26,1210.24C1920.63,1210.24 1907.09,1210.37 1892.63,1210.63Z" style="fill:rgb(248,221,0);fill-rule:nonzero;"/>
                <path d="M2118.42,1210.63L2097.71,1146.57L2051.03,1011.22C2065.88,1011.48 2079.68,1011.61 2092.44,1011.61C2105.72,1011.61 2118.22,1011.48 2129.94,1011.22C2132.15,1020.2 2136.51,1035.92 2143.03,1058.38C2149.54,1080.85 2156.7,1107.57 2164.51,1138.56L2169.59,1122.35C2170.37,1120.4 2173.43,1112.06 2178.77,1097.35L2209.82,1011.22C2223.89,1011.48 2237.17,1011.61 2249.67,1011.61C2262.56,1011.61 2275.97,1011.48 2289.9,1011.22L2262.95,1069.22L2212.75,1184.46L2202.01,1210.63C2186.64,1210.37 2173.1,1210.24 2161.39,1210.24C2148.62,1210.24 2134.3,1210.37 2118.42,1210.63Z" style="fill:rgb(248,221,0);fill-rule:nonzero;"/>
                <path d="M2664.12,938.95C2684.95,938.95 2705.01,941.75 2724.28,947.349C2743.55,952.948 2760.41,961.899 2774.86,974.204C2789.31,986.509 2800.12,1000.67 2807.28,1016.69C2814.45,1032.7 2818.03,1051.12 2818.03,1071.96C2818.03,1093.83 2814.09,1113.92 2806.21,1132.21C2798.33,1150.51 2786.97,1166.03 2772.13,1178.79C2757.28,1191.55 2739.58,1200.9 2719,1206.82C2698.43,1212.75 2677.01,1215.71 2654.74,1215.71C2632.74,1215.71 2611.64,1212.81 2591.46,1207.02C2571.28,1201.22 2553.74,1191.85 2538.83,1178.89C2523.92,1165.94 2513.34,1151.52 2507.09,1135.63C2500.84,1119.75 2497.71,1102.1 2497.71,1082.7C2497.71,1054.18 2504.32,1029.15 2517.54,1007.6C2530.75,986.053 2550.35,969.224 2576.33,957.114C2602.3,945.005 2631.57,938.95 2664.12,938.95ZM2660.6,997.739C2645.63,997.739 2632.09,1001.42 2619.98,1008.77C2607.87,1016.13 2598.56,1026.35 2592.05,1039.44C2585.54,1052.52 2582.28,1066.55 2582.28,1081.53C2582.28,1095.33 2585.24,1107.96 2591.17,1119.42C2597.09,1130.88 2606.11,1139.83 2618.22,1146.27C2630.33,1152.72 2643.16,1155.94 2656.7,1155.94C2671.15,1155.94 2684.4,1152.33 2696.44,1145.1C2708.49,1137.88 2717.67,1127.72 2723.98,1114.63C2730.3,1101.55 2733.45,1087.84 2733.45,1073.52C2733.45,1059.59 2730.53,1046.73 2724.67,1034.95C2718.81,1023.16 2710.21,1014.01 2698.89,1007.5C2687.56,1001 2674.8,997.739 2660.6,997.739Z" style="fill:rgb(255,109,0);fill-rule:nonzero;"/>
                <path d="M2844.98,1210.63C2848.76,1181.07 2851.65,1148.42 2853.67,1112.68C2855.69,1076.94 2856.89,1043.12 2857.28,1011.22C2872.91,1011.48 2886.39,1011.61 2897.71,1011.61C2910.86,1011.61 2923.49,1011.48 2935.6,1011.22L2933.65,1037.78C2937.95,1032.96 2941.66,1029.15 2944.78,1026.35C2947.91,1023.55 2951.78,1020.82 2956.4,1018.15C2961.03,1015.48 2965.94,1013.3 2971.15,1011.61C2976.36,1009.91 2982.05,1008.58 2988.24,1007.6C2994.43,1006.63 3000.9,1006.14 3007.67,1006.14C3017.05,1006.14 3026.2,1007.15 3035.12,1009.17C3044.03,1011.18 3051.49,1014.05 3057.48,1017.76C3063.47,1021.47 3068.48,1026.09 3072.52,1031.63C3076.55,1037.16 3079.22,1043.12 3080.53,1049.5C3081.83,1055.88 3082.48,1062.45 3082.48,1069.22C3082.48,1074.17 3081.96,1084.85 3080.92,1101.26L3077.6,1171.96C3076.95,1185.89 3076.62,1198.78 3076.62,1210.63C3063.47,1210.37 3051.16,1210.24 3039.7,1210.24C3024.21,1210.24 3010.08,1210.37 2997.32,1210.63C2998.49,1198.78 2999.73,1181.17 3001.03,1157.8C3002.34,1134.42 3002.99,1117.99 3002.99,1108.48C3002.99,1093.77 3000.15,1083.51 2994.49,1077.72C2988.83,1071.92 2981.7,1069.03 2973.1,1069.03C2965.55,1069.03 2958.42,1071.5 2951.72,1076.45C2945.01,1081.4 2939.84,1088.59 2936.19,1098.03C2932.54,1107.47 2929.97,1123 2928.47,1144.61C2926.98,1166.23 2925.97,1188.23 2925.45,1210.63C2912.43,1210.37 2899.73,1210.24 2887.36,1210.24C2874.34,1210.24 2860.21,1210.37 2844.98,1210.63Z" style="fill:rgb(255,109,0);fill-rule:nonzero;"/>
                <path d="M3118.42,1210.63L3121.93,1168.61L3129.55,1022.6L3131.7,944.028C3149.8,944.289 3163.4,944.419 3172.52,944.419C3184.37,944.419 3197.45,944.289 3211.78,944.028L3207.28,1003.99L3200.06,1151.65L3198.49,1210.63C3184.56,1210.5 3172,1210.43 3160.8,1210.43L3118.42,1210.63Z" style="fill:rgb(255,109,0);fill-rule:nonzero;"/>
                <path d="M3253.77,986.216C3254.55,970.721 3254.94,958.481 3254.94,949.497C3254.94,946.893 3254.87,943.377 3254.74,938.95C3270.5,939.211 3283.72,939.341 3294.39,939.341C3309.11,939.341 3322,939.211 3333.06,938.95C3332.67,942.987 3332.41,946.372 3332.28,949.106L3331.11,973.325C3330.85,976.971 3330.72,981.268 3330.72,986.216C3317.83,985.955 3305.46,985.825 3293.61,985.825C3281.37,985.825 3268.09,985.955 3253.77,986.216ZM3241.46,1210.63C3243.29,1194.75 3244.65,1181.66 3245.56,1171.37C3246.48,1161.09 3247.36,1147.93 3248.2,1131.92C3249.05,1115.9 3249.8,1098.19 3250.45,1078.79C3251.1,1059.39 3251.62,1036.87 3252.01,1011.22C3268.94,1011.48 3282.48,1011.61 3292.64,1011.61C3301.88,1011.61 3315.16,1011.48 3332.48,1011.22C3330.26,1035.83 3328.67,1057.44 3327.69,1076.06C3326.72,1094.68 3326.1,1114.41 3325.84,1135.24C3325.32,1172.22 3325.06,1197.35 3325.06,1210.63C3309.56,1210.37 3296.22,1210.24 3285.02,1210.24C3273.95,1210.24 3259.43,1210.37 3241.46,1210.63Z" style="fill:rgb(255,109,0);fill-rule:nonzero;"/>
                <path d="M3365.49,1210.63C3369.26,1181.07 3372.16,1148.42 3374.18,1112.68C3376.2,1076.94 3377.4,1043.12 3377.79,1011.22C3393.42,1011.48 3406.89,1011.61 3418.22,1011.61C3431.37,1011.61 3444,1011.48 3456.11,1011.22L3454.16,1037.78C3458.45,1032.96 3462.17,1029.15 3465.29,1026.35C3468.42,1023.55 3472.29,1020.82 3476.91,1018.15C3481.53,1015.48 3486.45,1013.3 3491.66,1011.61C3496.87,1009.91 3502.56,1008.58 3508.75,1007.6C3514.93,1006.63 3521.41,1006.14 3528.18,1006.14C3537.56,1006.14 3546.7,1007.15 3555.62,1009.17C3564.54,1011.18 3572,1014.05 3577.99,1017.76C3583.98,1021.47 3588.99,1026.09 3593.03,1031.63C3597.06,1037.16 3599.73,1043.12 3601.03,1049.5C3602.34,1055.88 3602.99,1062.45 3602.99,1069.22C3602.99,1074.17 3602.47,1084.85 3601.42,1101.26L3598.1,1171.96C3597.45,1185.89 3597.13,1198.78 3597.13,1210.63C3583.98,1210.37 3571.67,1210.24 3560.21,1210.24C3544.72,1210.24 3530.59,1210.37 3517.83,1210.63C3519,1198.78 3520.24,1181.17 3521.54,1157.8C3522.84,1134.42 3523.49,1117.99 3523.49,1108.48C3523.49,1093.77 3520.66,1083.51 3515,1077.72C3509.33,1071.92 3502.2,1069.03 3493.61,1069.03C3486.06,1069.03 3478.93,1071.5 3472.22,1076.45C3465.52,1081.4 3460.34,1088.59 3456.7,1098.03C3453.05,1107.47 3450.48,1123 3448.98,1144.61C3447.49,1166.23 3446.48,1188.23 3445.95,1210.63C3432.93,1210.37 3420.24,1210.24 3407.87,1210.24C3394.85,1210.24 3380.72,1210.37 3365.49,1210.63Z" style="fill:rgb(255,109,0);fill-rule:nonzero;"/>
                <path d="M3832.67,1151.65C3830.98,1159.46 3827.73,1178.34 3822.91,1208.29C3807.8,1211.28 3795.11,1213.27 3784.82,1214.24C3774.54,1215.22 3764.12,1215.71 3753.57,1215.71C3738.08,1215.71 3723.82,1214.63 3710.8,1212.49C3697.78,1210.34 3686.55,1206.54 3677.11,1201.08C3667.67,1195.61 3659.76,1188.81 3653.38,1180.68C3647,1172.55 3642.15,1162.89 3638.83,1151.71C3635.51,1140.52 3633.85,1129.01 3633.85,1117.17C3633.85,1100.52 3637.17,1084.22 3643.81,1068.29C3650.45,1052.35 3659.01,1039.89 3669.49,1030.92C3679.97,1021.95 3692.05,1015.57 3705.72,1011.8C3719.39,1008.02 3733.39,1006.14 3747.71,1006.14C3762.56,1006.14 3776.72,1007.86 3790.19,1011.31C3803.67,1014.76 3815.1,1020.79 3824.47,1029.38C3833.85,1037.97 3840.52,1047.67 3844.49,1058.48C3848.46,1069.29 3850.45,1080.94 3850.45,1093.44C3850.45,1100.86 3849.6,1109.13 3847.91,1118.25L3710.99,1118.44C3710.86,1120.52 3710.8,1122.39 3710.8,1124.08C3710.8,1138.09 3715.81,1148.39 3725.84,1155.01C3735.86,1161.62 3748.1,1164.93 3762.56,1164.93C3771.15,1164.93 3780.95,1163.92 3791.95,1161.9C3802.95,1159.88 3816.53,1156.46 3832.67,1151.65ZM3712.56,1088.56L3777.01,1088.56C3777.14,1086.35 3777.2,1084.46 3777.2,1082.9C3777.2,1076.12 3776,1070.33 3773.59,1065.51C3771.18,1060.69 3767.73,1057.18 3763.24,1054.97C3758.75,1052.75 3753.7,1051.65 3748.1,1051.65C3744.2,1051.65 3740.42,1052.26 3736.78,1053.5C3733.13,1054.74 3729.84,1056.56 3726.91,1058.97C3723.98,1061.38 3721.54,1064.15 3719.59,1067.27C3717.64,1070.4 3716.2,1073.42 3715.29,1076.35C3714.38,1079.28 3713.47,1083.35 3712.56,1088.56Z" style="fill:rgb(255,109,0);fill-rule:nonzero;"/>
            </g>
            <g transform="matrix(-0.430373,0.102838,0.110942,0.464289,2096.15,764.109)">
                <g transform="matrix(1,0,0,1,-0.24,-0.24)">
                    <path d="M366.165,476.83C365.348,477.53 361.261,455.228 361.261,455.228L363.596,440.864L370.938,424.866L549.804,544.34L640.408,607.18L665.916,602.352L674.909,611.724L678.354,622.391L674.342,636.905L661.558,646.752L647.266,648.645L606.194,648.637L570.31,636.384L509.339,603.795L393.767,506.099L366.165,476.83Z" style="fill:white;fill-rule:nonzero;"/>
                </g>
                <path d="M411.705,660.248C408.845,659.006 398.647,651.26 398.824,645.959C409.236,642.225 419.941,639.268 430.554,636.153C440.812,633.144 454.117,629.296 463.853,626.51C502.793,615.429 484.841,620.486 517.698,611.295C504.717,602.143 492.61,591.816 480.365,581.722L480.042,581.452C435.049,583.873 390.434,590.431 345.908,597.046C345.16,603.938 341.856,608.161 335.137,609.913C328.369,610.105 322.772,605.698 317.94,601.435C297.892,604.663 277.867,608.023 257.861,611.502C257.088,616.332 253.902,620.103 249.129,620.86C244.574,620.902 240.767,617.91 237.487,615.044C199.937,621.604 162.434,628.428 124.901,635.081C111.163,637.518 101.599,639.344 86.714,641.347C82.463,641.919 78.17,642.113 73.897,642.497L72.587,642.473C65.791,635.415 43.91,604.175 44.526,599.543C45.144,594.91 68.49,622.345 68.49,622.345C168.845,597.543 118.701,610.075 218.923,584.745C218.826,584.218 218.792,583.68 218.741,583.146C218.343,573.932 223.382,565.386 234.536,565.706C242.021,565.906 246.761,570.372 250.453,576.608C279.768,568.934 265.121,572.813 294.391,564.971L293.98,562.402C293.468,550.553 299.949,539.562 314.295,539.974C323.893,540.193 329.499,546.034 334.562,553.561C351.808,548.523 367.885,540.349 383.704,531.976C391.4,527.901 398.767,523.446 405.707,518.186C394.875,508.677 384.205,498.992 373.795,489.024C370.516,485.885 367.39,482.717 364.76,479.008C364.652,478.802 364.702,478.906 364.611,478.692C356.272,459.014 360.734,430.112 372.342,420.856C384.758,410.954 407.654,411.105 427.326,420.69C434.09,423.986 458.687,439.566 496.085,463.962C496.717,464.373 497.351,464.787 497.988,465.202C513.018,475.015 529.008,485.526 544.921,496.038C555.545,503.063 550.234,499.549 560.854,506.581C561.812,502.698 563.548,498.972 566.539,496.23C572.447,490.817 583.25,489.728 590.28,493.782C593.856,495.846 596.295,498.801 598.761,502.034C618.137,445.19 608.464,473.617 627.78,416.752C629.851,410.762 631.927,404.77 634.148,398.831C635.42,395.433 636.614,391.801 638.563,388.709C638.932,388.124 640.197,386.846 640.405,386.62L642.406,386.712C650.935,387.104 656.009,389.64 664.104,395.895L665.128,396.685C665.747,398.686 665.636,397.986 665.784,400.718C665.987,404.487 665.755,408.269 665.594,412.039C665.122,423.038 664.545,431.003 663.896,441.384C660.671,493.035 662.947,457.536 659.586,509.18L662.962,508.915C662.733,495.765 674.566,488.12 686.352,494.086C691.18,496.528 693.978,501.454 696.196,506.115L700.599,505.717C800.768,496.269 752.089,500.995 852.206,491.013C872.191,489.021 892.167,486.785 912.202,485.359C927.646,482.679 949.481,458.197 955.487,462.487C953.878,467.206 942.124,492.009 934.938,499.302C929.013,501.14 931.14,500.575 923.035,502.42C895.573,508.668 866.351,512.847 838.875,517.459C794.753,524.866 750.648,532.201 706.567,539.878C706.271,545.399 703.394,547 698.503,547.017C692.257,545.29 695.447,546.54 689.044,542.992L656.969,548.89L654.993,579.099L654.838,581.395L655.341,581.978C707.991,578.069 760.794,576.889 813.494,573.896C816.351,575.146 833.188,578.888 833.001,584.188C829.683,585.228 830.249,585.123 826.854,585.892C803.069,591.273 779.186,596.122 755.282,600.953C729.699,606.125 704.091,611.466 678.401,616.109C680.988,625.113 679.17,635.573 672.354,642.241C666.612,647.293 662.021,648.844 651.66,650.011C641.884,651.112 619.693,651.131 607.273,649.809C593.494,647.235 580.436,641.514 567.475,636.355C501.178,647.036 538.224,641.154 456.315,653.866C441.757,656.077 427.187,658.436 412.559,660.163L411.705,660.248ZM604.637,511.578C620.066,512.453 635.498,511.062 650.87,509.863C652.646,483.752 654.224,457.628 655.819,431.505C656.381,421.765 656.784,414.112 657.016,408.695C657.138,405.853 657.212,403.638 657.236,402.084L657.242,401.522C654.487,399.462 651.61,397.524 648.319,396.408C647.154,396.014 645.918,395.878 644.717,395.613C644.107,397.03 643.56,398.475 643.005,399.914C641.501,403.86 639.514,409.376 637.025,416.495C626.024,448.076 615.622,479.862 604.677,511.463L604.637,511.578ZM645.363,571.22L646.769,572.684C647.244,565.307 647.724,557.93 648.204,550.553L626.726,554.871L634.349,561.22L645.363,571.22ZM649.633,646.76C648.371,643.908 645.025,638.781 644.474,635.54C644.072,633.173 643.215,626.717 645.872,625.082C647.986,623.782 653.743,625.472 655.968,625.695C661.013,626.202 670.737,625.442 675.607,623.865C675.799,620.654 675.285,617.869 673.806,615.07C672.683,614.709 673.39,614.964 671.728,614.193C668.38,614.779 660.215,615.68 656.832,615.801C651.953,615.889 647.128,615.063 642.348,614.188C593.232,603.221 558.202,579.552 544.381,570.722C507.093,543.142 471.114,513.857 434.918,484.874C414.207,468.29 389.437,449.086 368.913,432.271L368.873,432.364L441.496,494.952C391.786,455.858 416.515,475.307 367.315,436.613L367.183,437.115L426.045,487.125L427.402,488.278L427.399,488.289L366.159,441.007L366.071,441.462L413.604,482.058L413.601,482.069L365.379,445.61C363.962,455.606 364.343,465.788 367.564,475.385C368.478,477.642 376.385,485.22 378.153,486.903C384.157,492.624 390.317,498.182 396.5,503.706C400.855,507.612 409.924,515.819 409.933,515.763C409.942,515.704 415.21,518.505 417.511,519.401C419.668,520.24 426.374,523.738 427.977,524.797C437.615,531.156 447.066,537.645 455.787,545.215C462.552,551.087 469.128,557.137 475.205,563.728C482.903,572.461 482.193,575.944 482.977,578.009C496.315,588.664 509.375,599.695 523.236,609.673C529.902,607.822 541.409,604.737 548.089,602.939C550.589,602.27 554.286,601.296 557.019,600.609C558.744,600.177 560.839,599.382 562.682,599.47C569.059,599.775 575.615,602.032 581.584,604.022C589.67,606.718 597.054,609.457 604.935,612.723C611.198,615.317 616.279,617.579 622.142,620.625C623.852,621.513 628.644,623.797 629.255,625.971C625.034,626.805 620.793,627.533 616.555,628.273C619.294,629.944 622.477,630.416 625.617,630.596L623.679,630.777C619.953,630.8 616.32,629.898 612.752,628.925L610.305,629.342C615.081,631.996 620.238,632.912 625.616,633.186L621.744,633.295C616.848,633.006 612.032,631.798 607.552,629.811L605.543,630.148C612.279,634.339 619.966,636.088 627.695,635.964L627.667,635.973C625.951,636.162 626.968,636.071 624.613,636.188C616.845,636.185 609.175,634.236 602.283,630.69L600.521,630.984C609.229,636.111 619.289,637.959 629.256,638.415L624.166,638.418C614.495,638.277 605.45,635.472 596.683,631.625L594.593,631.975C607.435,638.631 616.849,640.456 630.865,640.431C625.454,640.755 628.631,640.627 621.329,640.66C610.486,640.427 600.633,636.775 590.781,632.601L588.907,632.885C603.318,640.73 616.123,643.351 632.305,642.582C625.148,643.057 629.35,643.093 619.701,643.059C608.142,643.019 596.426,639.081 583.834,633.654L581.811,633.962C601.158,644.584 617.995,645.088 634.052,644.838C627.245,645.644 619.938,645.872 613.917,645.522C601.262,644.787 591.283,640.84 576.521,634.765L575.827,634.87C581.034,638.186 590.568,642.322 599.24,644.411C620.051,649.788 649.633,646.76 649.633,646.76Z" style="fill:rgb(255,109,0);fill-rule:nonzero;"/>
                <path d="M665.109,508.604C664.955,506.573 664.739,502.767 667.742,499.229C668.823,500.742 670.924,505.936 674.819,506.021C676.155,506.05 690.143,506.247 690.143,506.247C690.143,506.247 667.833,508.349 665.109,508.604Z" style="fill:white;fill-rule:nonzero;"/>
                <path d="M928.158,496.088C928.824,496.271 929.685,497.06 930.144,497.874C877.37,507.281 657.269,544.34 657.269,544.34L657.782,534.592C657.782,534.592 844.546,504.783 928.158,496.088Z" style="fill:white;fill-rule:nonzero;"/>
                <path d="M642.207,391.021C651.114,391.431 656.469,395.446 661.467,399.308C662.761,403.077 649.866,587.99 649.374,599.521C640.323,600.726 576.543,552.478 570.309,537.519C578.048,539.151 585.207,540.678 590.25,537.038C594.284,533.016 638.12,395.433 642.207,391.021Z" style="fill:white;fill-rule:nonzero;"/>
                <path d="M412.905,656.781C440.118,651.794 593.644,624.74 616.691,620.812C618.477,621.121 622.445,623.113 623.433,624.164C581.607,631.481 439.298,654.944 412.905,656.781Z" style="fill:white;fill-rule:nonzero;"/>
                <path d="M581.082,537.35C574.782,535.903 568.396,531.817 565.158,534.296C554.229,542.969 623.432,588.745 628.193,591.321C619.003,584.777 563.176,547.418 567.689,536.087C569.603,534.282 577.639,537.521 581.082,537.35Z" style="fill:white;fill-rule:nonzero;"/>
                <path d="M74.514,640.433C74.514,640.433 74.227,637.778 74.022,636.466C101.04,625.152 469.086,562.459 469.086,562.459C469.086,562.459 477.353,569.796 477.353,575.45C389.958,578.107 74.514,640.433 74.514,640.433Z" style="fill:white;fill-rule:nonzero;"/>
                <path d="M377.816,422.843C405.653,417.137 406.891,413.466 497.113,469.726C415.74,415.377 406.931,410.45 377.816,422.843Z" style="fill:white;fill-rule:nonzero;"/>
                <path d="M402.794,489.664L400.068,487.354L400.042,477.135L402.794,479.422L402.794,489.664Z" style="fill:rgb(255,109,0);fill-rule:nonzero;"/>
                <path d="M397.981,485.586L395.228,483.254L395.203,473.111L397.956,475.399L397.981,485.586Z" style="fill:rgb(255,109,0);fill-rule:nonzero;"/>
                <path d="M393.139,481.483L390.386,479.151L390.361,469.088L393.114,471.375L393.139,481.483Z" style="fill:rgb(255,109,0);fill-rule:nonzero;"/>
                <path d="M388.298,477.383L385.545,475.051L385.52,465.064L388.273,467.353L388.298,477.383Z" style="fill:rgb(255,109,0);fill-rule:nonzero;"/>
                <path d="M383.456,473.28L380.703,470.948L380.678,461.04L383.431,463.328L383.456,473.28Z" style="fill:rgb(255,109,0);fill-rule:nonzero;"/>
                <path d="M378.616,469.18L375.863,466.848L375.838,457.018L378.591,459.306L378.616,469.18Z" style="fill:rgb(255,109,0);fill-rule:nonzero;"/>
                <path d="M373.794,465.064L370.938,462.68L370.938,452.937L373.769,455.268L373.794,465.064Z" style="fill:rgb(255,109,0);fill-rule:nonzero;"/>
                <path d="M429.147,511.989L426.393,509.656L426.367,499.012L429.12,501.301L429.147,511.989Z" style="fill:rgb(255,109,0);fill-rule:nonzero;"/>
                <path d="M424.306,507.888L421.552,505.556L421.526,494.989L424.279,497.277L424.306,507.888Z" style="fill:rgb(255,109,0);fill-rule:nonzero;"/>
                <path d="M419.464,503.785L416.71,501.453L416.684,490.966L419.438,493.254L419.464,503.785Z" style="fill:rgb(255,109,0);fill-rule:nonzero;"/>
                <path d="M414.623,499.684L411.869,497.352L411.843,486.941L414.597,489.229L414.623,499.684Z" style="fill:rgb(255,109,0);fill-rule:nonzero;"/>
                <path d="M409.781,495.582L407.043,493.264L407.043,482.952L409.755,485.206L409.781,495.582Z" style="fill:rgb(255,109,0);fill-rule:nonzero;"/>
                <path d="M490.199,563.709L487.446,561.378L487.417,549.75L490.17,552.037L490.199,563.709Z" style="fill:rgb(255,109,0);fill-rule:nonzero;"/>
                <path d="M485.359,559.608L482.606,557.276L482.577,545.727L485.33,548.015L485.359,559.608Z" style="fill:rgb(255,109,0);fill-rule:nonzero;"/>
                <path d="M480.517,555.507L477.764,553.175L477.735,541.702L480.488,543.99L480.517,555.507Z" style="fill:rgb(255,109,0);fill-rule:nonzero;"/>
                <path d="M475.676,551.404L472.923,549.072L472.894,537.679L475.647,539.967L475.676,551.404Z" style="fill:rgb(255,109,0);fill-rule:nonzero;"/>
                <path d="M470.835,547.305L468.081,544.973L468.053,533.656L470.806,535.944L470.835,547.305Z" style="fill:rgb(255,109,0);fill-rule:nonzero;"/>
                <path d="M465.994,543.203L463.24,540.871L463.212,529.634L465.966,531.922L465.994,543.203Z" style="fill:rgb(255,109,0);fill-rule:nonzero;"/>
                <path d="M461.153,539.102L458.399,536.77L458.371,525.609L461.125,527.897L461.153,539.102Z" style="fill:rgb(255,109,0);fill-rule:nonzero;"/>
                <path d="M456.311,535L453.557,532.669L453.529,521.587L456.283,523.875L456.311,535Z" style="fill:rgb(255,109,0);fill-rule:nonzero;"/>
                <path d="M451.47,530.898L448.716,528.566L448.689,517.563L451.442,519.851L451.47,530.898Z" style="fill:rgb(255,109,0);fill-rule:nonzero;"/>
                <path d="M446.627,526.798L443.874,524.466L443.847,513.539L446.6,515.828L446.627,526.798Z" style="fill:rgb(255,109,0);fill-rule:nonzero;"/>
                <path d="M441.786,522.698L439.033,520.365L439.006,509.518L441.759,511.806L441.786,522.698Z" style="fill:rgb(255,109,0);fill-rule:nonzero;"/>
                <path d="M436.946,518.595L434.193,516.263L434.166,505.492L436.919,507.78L436.946,518.595Z" style="fill:rgb(255,109,0);fill-rule:nonzero;"/>
                <path d="M514.529,584.222L511.666,581.896L511.636,569.878L514.625,572.295L514.529,584.222Z" style="fill:rgb(255,109,0);fill-rule:nonzero;"/>
                <path d="M509.578,580.125L506.824,577.793L506.794,565.852L509.548,568.141L509.578,580.125Z" style="fill:rgb(255,109,0);fill-rule:nonzero;"/>
                <path d="M504.735,576.026L501.982,573.693L501.953,561.83L504.706,564.119L504.735,576.026Z" style="fill:rgb(255,109,0);fill-rule:nonzero;"/>
                <path d="M499.896,571.925L497.142,569.592L497.112,557.807L499.866,560.096L499.896,571.925Z" style="fill:rgb(255,109,0);fill-rule:nonzero;"/>
                <path d="M495.053,567.821L492.3,565.489L492.271,553.783L495.024,556.071L495.053,567.821Z" style="fill:rgb(255,109,0);fill-rule:nonzero;"/>
                <path d="M297.04,563.729C296.841,561.116 295.841,555.095 299.703,550.546C301.094,552.492 303.37,558.582 308.203,558.145C309.915,557.989 328.097,554.492 328.097,554.492C328.097,554.492 300.597,562.587 297.04,563.729Z" style="fill:white;fill-rule:nonzero;"/>
                <path d="M221.121,584.176C220.966,582.145 220.188,577.463 223.192,573.926C224.273,575.439 226.043,580.175 229.8,579.834C231.131,579.714 245.29,577.59 245.29,577.59C245.29,577.59 223.886,583.287 221.121,584.176Z" style="fill:white;fill-rule:nonzero;"/>
                <path d="M588.734,526.554L564.888,509.482L564.587,509.472L564.583,509.265L560.766,506.532C560.976,505.777 561.354,504.231 561.616,503.705L564.908,506.219C565.242,503.772 566.882,501.907 568.362,500.053C569.752,501.998 575.38,507.656 580.164,508.326C581.866,508.565 596.688,510.494 596.688,510.494C587.589,510.222 578.491,509.936 569.393,509.642C580.211,517.898 573.505,512.781 589.51,524.992L589.087,525.725L588.734,526.554Z" style="fill:white;fill-rule:nonzero;"/>
                <path d="M675.067,608.941C671.397,603.407 667.699,597.887 663.797,592.513C661.085,588.778 658.363,584.993 655.114,581.697C655.061,581.727 656.443,581.329 658.305,581.479C664.11,589.674 669.109,598.408 674.057,607.137L675.067,608.941ZM677.438,613.514C676.647,611.568 677.312,613.15 675.067,608.941C714.822,602.026 754.573,595.088 794.36,588.362C801.741,587.114 808.328,586.009 815.672,584.803C820.307,584.04 824.959,583.205 829.627,582.649C827.611,583.313 825.525,583.801 823.462,584.28C803.133,589.011 782.598,592.945 762.13,597.008C734.365,602.517 706.577,607.914 678.779,613.257L677.438,613.514Z" style="fill:white;fill-rule:nonzero;"/>
                <path d="M625.204,473.236C636.804,430.236 629.303,458.041 647.706,389.821L652.648,392.544L625.204,473.236ZM610.85,496.09C621.547,460.342 632.244,424.594 642.941,388.846L647.706,389.821L610.85,496.09Z" style="fill:rgb(255,109,0);fill-rule:nonzero;"/>
                <path d="M608.828,557.748C600.708,552.62 592.429,547.287 585.613,540.45C584.9,539.735 584.238,538.972 583.551,538.231L583.721,538.231C584.921,538.091 586.125,537.985 587.328,537.872L587.497,537.872C592.466,544.006 598.361,549.228 604.337,554.332L608.828,557.748ZM612.733,566.515C599.516,558.596 587.5,548.73 576.25,538.232L583.068,538.661C589.944,546.56 597.251,554.103 605.221,560.908C606.848,562.298 608.595,563.538 610.281,564.854L612.733,566.515ZM624.129,580.778C623.112,580.26 620.846,579.128 619.871,578.529C601.103,567.026 584.716,552.453 568.947,537.202L575.391,537.856C585.027,549.454 596.01,559.936 607.942,569.153C611.152,571.634 615.12,574.502 618.394,576.896L624.129,580.778Z" style="fill:rgb(255,109,0);fill-rule:nonzero;"/>
            </g>
        </g>
    </g>
</svg>
